SplineFontDB: 3.0
FontName: BulmerStM
FullName: Sorts Mill Bulmer
FamilyName: Sorts Mill Bulmer
Weight: Regular
Copyright: Created by trashman with FontForge 2.0 (http://fontforge.sf.net)
UComments: "2010-10-5: Created." 
Version: 001.000
ItalicAngle: 0
UnderlinePosition: -100
UnderlineWidth: 50
Ascent: 680
Descent: 320
LayerCount: 3
Layer: 0 0 "Back"  1
Layer: 1 0 "Fore"  0
Layer: 2 0 "backup"  0
NeedsXUIDChange: 1
XUID: [1021 658 797806517 5336769]
OS2Version: 0
OS2_WeightWidthSlopeOnly: 0
OS2_UseTypoMetrics: 1
CreationTime: 1286303174
ModificationTime: 1286526984
OS2TypoAscent: 0
OS2TypoAOffset: 1
OS2TypoDescent: 0
OS2TypoDOffset: 1
OS2TypoLinegap: 0
OS2WinAscent: 0
OS2WinAOffset: 1
OS2WinDescent: 0
OS2WinDOffset: 1
HheadAscent: 0
HheadAOffset: 1
HheadDescent: 0
HheadDOffset: 1
OS2Vendor: 'PfEd'
MarkAttachClasses: 1
DEI: 91125
Encoding: UnicodeBmp
UnicodeInterp: none
NameList: Adobe Glyph List
DisplaySize: -48
AntiAlias: 1
FitToEm: 1
WinInfo: 77 11 5
BeginPrivate: 9
BlueValues 23 [-16 0 380 396 674 674]
OtherBlues 11 [-279 -272]
BlueScale 8 0.039625
BlueShift 1 7
BlueFuzz 1 0
StdHW 4 [34]
StemSnapH 4 [34]
StdVW 4 [81]
StemSnapV 10 [78 81 91]
EndPrivate
BeginChars: 65536 76

StartChar: a
Encoding: 97 97 0
Width: 413
VWidth: 0
Flags: W
HStem: -12 54<107.5 199 356.282 389.229> -12 42<298.482 386.582> 211 19<210.449 250> 371 21<139.541 220.414>
VStem: 40 85<58.5618 138.755 290.788 358.768> 250 81<58.8789 211 230 348.153>
LayerCount: 3
Fore
SplineSet
43 323 m 0xbc
 43 371 123 392 192 392 c 4
 266 392 331 355 331 295 c 2
 331 66 l 2
 331 50 332 30 356 30 c 0
 362 30 369 33 373 37 c 0
 378 42 380 47 385 47 c 0
 394 47 398 40 398 31 c 0
 398 5 364 -12 335 -12 c 0x7c
 265 -12 252 54 252 54 c 1
 252 54 233 34 208 16 c 0
 187 1 162 -12 135 -12 c 0
 80 -12 40 26 40 75 c 0
 40 133 91 183 151 207 c 0
 186 221 218 226 250 230 c 1
 250 305 l 2
 250 352 219 371 178 371 c 0
 164 371 149 370 139 362 c 0
 125 351 120 336 120 314 c 0
 120 297 96 284 81 284 c 0
 58 284 43 300 43 323 c 0xbc
250 211 m 1
 250 211 125 196 125 115 c 0
 125 79 144 42 189 42 c 0xbc
 204 42 250 63 250 93 c 2
 250 211 l 1
EndSplineSet
Layer: 2
SplineSet
43 323 m 4xbc
 43 371 123 392 192 392 c 4
 266 392 331 355 331 295 c 6
 331 66 l 6
 331 50 332 30 356 30 c 4
 362 30 369 33 373 37 c 4
 378 42 380 47 385 47 c 4
 394 47 398 40 398 31 c 4
 398 5 364 -12 335 -12 c 4x7c
 265 -12 252 54 252 54 c 5
 252 54 233 34 208 16 c 4
 187 1 162 -13 135 -13 c 4
 80 -13 40 26 40 75 c 4
 40 133 91 183 151 207 c 4
 186 221 218 226 250 230 c 5
 250 305 l 6
 250 352 219 371 178 371 c 4
 164 371 149 370 139 362 c 4
 125 351 120 336 120 314 c 4
 120 297 96 284 81 284 c 4
 58 284 43 300 43 323 c 4xbc
250 211 m 5
 250 211 125 196 125 115 c 4
 125 79 144 42 189 42 c 4xbc
 204 42 250 63 250 93 c 6
 250 211 l 5
EndSplineSet
EndChar

StartChar: b
Encoding: 98 98 1
Width: 492
VWidth: 0
Flags: W
HStem: -14 31<195.991 298.61> -2 29<15.0073 68.8359> 366 28<211.371 305.634> 625 30<17.0403 51> 654 20G<137 147>
VStem: 72 78<28.4342 556.741> 367 91<101.723 285.357>
LayerCount: 3
Fore
SplineSet
146 316 m 1x2e
 165 354 206 394 276 394 c 0
 368 394 458 307 458 192 c 0
 458 90 378 -14 261 -14 c 0
 169 -14 145 59 145 59 c 1
 145 17 l 2xae
 145 -2 144 -7 141 -7 c 0
 138 -7 99 -2 74 -2 c 2
 37 -2 l 2
 25 -2 15 -1 15 13 c 0
 15 24 22 26 37 27 c 0
 67 29 72 34 72 69 c 2
 72 499 l 2
 72 523 72 551 71 591 c 0
 71 604 69 618 51 622 c 2
 36 625 l 2
 31 626 17 628 17 639 c 0
 17 650 23 654 36 655 c 0x76
 67 658 134 674 140 674 c 0
 154 674 154 667 154 658 c 0
 154 561 146 316 146 316 c 1x2e
367 190 m 0
 367 280 337 366 257 366 c 0
 227 366 202 353 183 333 c 0
 154 303 150 257 150 200 c 2
 150 189 l 2
 150 131 151 76 180 43 c 0
 192 29 219 17 245 17 c 0
 343 17 367 126 367 190 c 0
EndSplineSet
Layer: 2
SplineSet
146 316 m 5x2e
 165 354 206 394 276 394 c 4
 368 394 458 307 458 192 c 4
 458 90 378 -14 261 -14 c 4
 169 -14 145 59 145 59 c 5
 145 17 l 6xae
 145 -2 144 -7 141 -7 c 4
 138 -7 99 -2 74 -2 c 6
 42 -2 l 6
 30 -2 14 -2 14 12 c 4
 14 23 18 25 33 27 c 6
 53 29 l 6
 70 31 72 58 72 81 c 6
 72 497 l 6
 72 521 72 549 71 589 c 4
 71 602 69 616 51 620 c 6
 36 623 l 6
 31 624 17 626 17 637 c 4
 17 648 23 652 36 653 c 4x76
 67 656 134 672 140 672 c 4
 154 672 154 665 154 656 c 4
 154 559 146 316 146 316 c 5x2e
367 190 m 4
 367 280 337 366 257 366 c 4
 227 366 202 353 183 333 c 4
 154 303 150 257 150 200 c 6
 150 189 l 6
 150 131 151 76 180 43 c 4
 192 29 219 17 245 17 c 4
 343 17 367 126 367 190 c 4
EndSplineSet
EndChar

StartChar: c
Encoding: 99 99 2
Width: 443
VWidth: 0
Flags: HW
HStem: -16 46<186.859 320.911> 373 23<207.405 302.145>
VStem: 37 91<100.337 269.562> 321 72<270.888 357.538>
LayerCount: 3
Fore
SplineSet
249 396 m 0
 308 396 393 373 393 309 c 0
 393 282 377 267 352 267 c 0
 338 267 321 280 321 296 c 0
 321 317 323 316 323 331 c 0
 323 340 312 373 256 373 c 0
 162 373 128 277 128 191 c 0
 128 120 168 30 248 30 c 0
 298 30 329 44 350 73 c 0
 357 82 361 101 376 101 c 0
 385 101 389 94 389 86 c 0
 389 71 381 56 370 43 c 0
 341 7 283 -16 227 -16 c 0
 114 -16 37 74 37 183 c 0
 37 294 141 396 249 396 c 0
EndSplineSet
Layer: 2
SplineSet
249 396 m 4
 308 396 393 373 393 309 c 4
 393 282 377 267 352 267 c 4
 338 267 321 280 321 296 c 4
 321 317 323 316 323 331 c 4
 323 340 312 373 256 373 c 4
 162 373 128 277 128 191 c 4
 128 120 168 30 248 30 c 4
 298 30 329 44 350 73 c 4
 357 82 361 101 376 101 c 4
 385 101 389 94 389 86 c 4
 389 71 381 56 370 43 c 4
 341 7 283 -16 227 -16 c 4
 114 -16 34 74 34 183 c 4
 34 294 141 396 249 396 c 4
EndSplineSet
EndChar

StartChar: d
Encoding: 100 100 3
Width: 500
VWidth: 0
Flags: W
HStem: -14 37<177.465 283.227> 4 28<429.592 479.993> 366 26<188.462 284.166> 625 34<275.007 337.484> 654 20G<410 417.5>
VStem: 26 86<90.8497 283.31> 346 76<33.8777 62 336 591.493>
LayerCount: 3
Fore
SplineSet
424 657 m 0x2e
 424 651 420 565 419 517 c 0
 418 457 417 560 417 226 c 2
 417 189 l 2
 417 140 419 107 422 72 c 0
 424 50 432 33 454 32 c 0
 471 31 480 33 480 18 c 0
 480 9 479 4 470 4 c 0x6e
 416 4 372 -9 359 -9 c 0
 351 -9 346 -6 346 7 c 2
 346 62 l 1
 328 28 274 -14 217 -14 c 0
 73 -14 26 85 26 190 c 0
 26 292 99 392 222 392 c 0
 301 392 342 336 342 336 c 1
 342 484 l 2
 342 520 340 561 339 593 c 0
 339 608 338 626 324 626 c 2
 291 625 l 2
 285 625 275 625 275 642 c 0
 275 656 277 659 288 659 c 0xb6
 361 662 407 674 413 674 c 0
 422 674 424 667 424 657 c 0x2e
112 185 m 0
 112 107 153 23 236 23 c 0xa6
 280 23 318 44 331 78 c 0
 338 98 339 124 339 152 c 2
 339 262 l 2
 339 323 302 366 239 366 c 0
 151 366 112 273 112 185 c 0
EndSplineSet
Layer: 2
SplineSet
480 18 m 4x6e
 480 9 479 4 470 4 c 4x6e
 416 4 372 -9 359 -9 c 4
 351 -9 346 -6 346 7 c 6
 346 62 l 5
 328 28 274 -14 217 -14 c 4
 73 -14 26 85 26 190 c 4
 26 292 99 392 222 392 c 4
 301 392 342 336 342 336 c 5
 342 487 l 6xa5
 342 523 340 565 339 597 c 4
 339 612 339 631 318 631 c 6
 294 630 l 6
 282 630 275 635 275 644 c 4
 275 651 277 662 288 662 c 4xb6
 340 664 401 678 413 678 c 4
 426 678 424 670 424 660 c 4
 424 654 418 568 418 520 c 4
 418 458 417 560 417 226 c 6
 417 189 l 6
 417 140 419 107 422 72 c 4
 424 50 432 33 454 32 c 4
 471 31 480 33 480 18 c 4x6e
112 185 m 4
 112 107 153 23 236 23 c 4xa6
 280 23 318 44 331 78 c 4
 338 98 339 124 339 152 c 6
 339 262 l 6
 339 323 302 366 239 366 c 4
 151 366 112 273 112 185 c 4
EndSplineSet
EndChar

StartChar: e
Encoding: 101 101 4
Width: 416
VWidth: 0
Flags: HW
HStem: -16 52<190.196 311.789> 234 34<129.01 292.681> 241 24<129 244.053> 367 29<178.707 268.522>
VStem: 32 91<114.286 237.109> 297 80<247 325.484> 349 35<71.2803 117.745>
LayerCount: 3
Fore
SplineSet
32 178 m 0xba
 32 283 107 396 219 396 c 0
 246 396 271 394 293 383 c 0
 338 360 377 311 377 255 c 0
 377 239 359 234 342 234 c 0xdc
 328 234 123 241 123 241 c 1
 122 231 122 222 122 213 c 0
 122 96 181 36 259 36 c 0
 303 36 337 66 349 99 c 0
 353 108 359 118 369 118 c 0
 377 118 384 111 384 99 c 0
 384 65 334 -16 220 -16 c 0
 108 -16 32 67 32 178 c 0xba
223 367 m 0
 147 367 129 265 129 265 c 1xbc
 129 265 142 265 249 268 c 0
 275 269 297 270 297 308 c 0
 297 338 261 367 223 367 c 0
EndSplineSet
Layer: 2
SplineSet
33 178 m 4xba
 33 283 108 396 220 396 c 4
 247 396 272 394 294 383 c 4
 339 360 378 311 378 255 c 4
 378 239 360 234 343 234 c 4xdc
 329 234 124 241 124 241 c 5
 124 225 l 6
 124 98 184 36 260 36 c 4
 304 36 338 66 350 99 c 4
 354 108 360 118 370 118 c 4
 378 118 385 111 385 99 c 4
 385 65 335 -16 221 -16 c 4
 109 -16 33 67 33 178 c 4xba
224 367 m 4
 148 367 130 265 130 265 c 5xbc
 130 265 143 265 250 268 c 4
 276 269 298 270 298 308 c 4
 298 338 262 367 224 367 c 4
EndSplineSet
EndChar

StartChar: f
Encoding: 102 102 5
Width: 278
VWidth: 0
Flags: W
HStem: -2 34<24.0141 73.1042 159.365 221.985> 347 34<28.0075 76 157 228.85> 653 21<207.218 263.041>
VStem: 76 81<32 347.641 380.453 583.726> 264 86<570.528 652.809>
LayerCount: 3
Fore
SplineSet
264 637 m 0
 264 651 256 653 241 653 c 0
 166 653 157 540 157 498 c 2
 157 391 l 2
 157 380 157 380 168 380 c 2
 215 381 l 2
 226 381 229 376 229 365 c 2
 229 361 l 2
 229 352 225 347 213 347 c 2
 168 348 l 2
 157 348 157 347 157 335 c 2
 157 166 l 2
 157 152 157 118 158 85 c 0
 159 56 156 32 173 32 c 2
 205 32 l 2
 217 32 222 30 222 16 c 0
 222 1 217 -2 208 -2 c 0
 182 -2 152 0 124 0 c 0
 95 0 55 -2 39 -2 c 0
 26 -2 24 6 24 16 c 0
 24 28 27 32 41 32 c 2
 61 32 l 2
 76 32 74 62 75 85 c 0
 76 108 76 138 76 166 c 2
 76 335 l 2
 76 348 75 348 62 348 c 2
 40 347 l 2
 29 347 28 351 28 359 c 2
 28 368 l 2
 28 375 29 381 40 381 c 2
 66 380 l 2
 76 380 76 380 76 391 c 2
 76 464 l 2
 76 527 85 588 133 632 c 0
 164 660 193 674 252 674 c 0
 297 674 350 663 350 607 c 0
 350 577 322 564 307 564 c 0
 282 564 262 578 262 608 c 0
 262 620 264 630 264 637 c 0
EndSplineSet
Layer: 2
SplineSet
264 627 m 4
 264 641 256 643 241 643 c 4
 166 643 157 530 157 488 c 6
 157 384 l 6
 157 373 157 373 168 373 c 6
 215 374 l 6
 226 374 229 369 229 358 c 6
 229 354 l 6
 229 345 225 340 213 340 c 6
 168 341 l 6
 157 341 157 340 157 328 c 6
 157 166 l 6
 157 152 157 118 158 85 c 4
 159 56 156 32 173 32 c 6
 205 32 l 6
 217 32 222 30 222 16 c 4
 222 1 217 -2 208 -2 c 4
 182 -2 152 0 124 0 c 4
 95 0 55 -2 39 -2 c 4
 26 -2 24 6 24 16 c 4
 24 28 27 32 41 32 c 6
 61 32 l 6
 76 32 74 62 75 85 c 4
 76 108 76 138 76 166 c 6
 76 328 l 6
 76 341 75 341 62 341 c 6
 40 340 l 6
 29 340 28 344 28 352 c 6
 28 361 l 6
 28 368 29 374 40 374 c 6
 66 373 l 6
 76 373 76 373 76 384 c 6
 76 454 l 6
 76 517 85 578 133 622 c 4
 164 650 193 664 252 664 c 4
 297 664 350 653 350 597 c 4
 350 567 322 554 307 554 c 4
 282 554 262 568 262 598 c 4
 262 610 264 620 264 627 c 4
EndSplineSet
EndChar

StartChar: g
Encoding: 103 103 6
Width: 434
VWidth: 0
Flags: WO
HStem: -279 31<150.156 299.457> -52 79<167 265> 105 19<153.109 218.056> 367 19<159.137 217.697 311.801 378>
VStem: 29 65<-206.318 -86.9> 32 83<170.21 318.274> 81 46<9 85.6379> 257 78<166.244 310.023> 368 56<-188.885 -84.0658>
LayerCount: 3
Fore
SplineSet
186 386 m 0xf580
 237 386 280 352 280 352 c 1
 280 352 318 392 360 392 c 0
 396 392 422 377 422 342 c 0
 422 326 415 308 395 308 c 0
 353 308 362 365 332 365 c 0
 311 365 290 341 290 341 c 1
 290 341 335 297 335 238 c 0
 335 169 283 105 184 105 c 0
 168 105 127 97 127 66 c 0xf380
 127 37 162 28 194 27 c 0
 327 24 424 27 424 -108 c 0
 424 -245 284 -279 220 -279 c 0
 123 -279 29 -230 29 -142 c 0xf980
 29 -75 87 -53 142 -44 c 1
 110 -33 81 -14 81 32 c 0xf380
 81 86 136 111 136 111 c 1
 136 111 32 132 32 248 c 0
 32 328 106 386 186 386 c 0xf580
94 -142 m 0xf980
 94 -187 121 -248 224 -248 c 0
 311 -248 368 -199 368 -127 c 0
 368 -81 321 -63 265 -59 c 2
 167 -52 l 1
 167 -52 172 -69 160 -69 c 0
 113 -69 94 -111 94 -142 c 0xf980
188 367 m 0
 136 367 115 298 115 240 c 0xf580
 115 189 128 124 184 124 c 0
 242 124 257 181 257 232 c 0
 257 288 245 367 188 367 c 0
EndSplineSet
Layer: 2
SplineSet
186 386 m 4xcd60
 237 386 280 352 280 352 c 5
 280 352 318 392 360 392 c 4
 396 392 422 377 422 342 c 4
 422 326 415 308 395 308 c 4
 353 308 362 365 332 365 c 4
 311 365 290 341 290 341 c 5
 290 341 335 297 335 238 c 4
 335 169 283 105 184 105 c 4
 168 105 127 102 127 66 c 4xcce0
 127 31 162 26 194 26 c 6
 279 26 l 6
 372 26 424 -16 424 -108 c 4
 424 -245 295 -279 220 -279 c 4
 123 -279 29 -233 29 -142 c 4xae60
 29 -69 86 -51 120 -47 c 4
 132 -46 142 -45 142 -44 c 4
 142 -43 130 -40 120 -35 c 4
 98 -24 81 -3 81 32 c 4xcce0
 81 86 136 111 136 111 c 5
 136 111 32 132 32 248 c 4
 32 328 106 386 186 386 c 4xcd60
94 -142 m 4xce60
 94 -203 130 -247 224 -247 c 4
 310 -247 368 -199 368 -127 c 4
 368 -81 321 -63 265 -59 c 6xae60
 167 -52 l 5x9e60
 167 -52 172 -69 160 -69 c 4
 113 -69 94 -111 94 -142 c 4xce60
188 367 m 4
 136 367 115 298 115 240 c 4x8d60
 115 189 128 124 184 124 c 4
 242 124 257 181 257 232 c 4
 257 288 245 367 188 367 c 4
EndSplineSet
EndChar

StartChar: h
Encoding: 104 104 7
Width: 528
VWidth: 0
Flags: W
HStem: -2 34<29.0205 86.8968 172.828 226.968 295.043 351.104 436.688 496.965> 360 32<236.476 328.831> 625 34<24.0073 86.4844> 654 20G<159 166.5>
VStem: 90 81<32 315.151 319 625.859> 354 81<32 339.815>
LayerCount: 3
Fore
SplineSet
173 657 m 0xdc
 173 651 172 367 171 319 c 1
 171 319 210 392 308 392 c 0
 384 392 435 351 435 289 c 2
 435 74 l 2
 435 46 438 32 452 32 c 2
 473 32 l 2
 485 32 497 30 497 16 c 0
 497 1 490 -2 481 -2 c 0
 455 -2 423 0 395 0 c 0
 366 0 334 -2 318 -2 c 0
 301 -2 295 3 295 16 c 0
 295 31 310 32 322 32 c 2
 339 32 l 2
 354 32 352 62 353 85 c 0
 354 108 354 138 354 166 c 2
 354 246 l 2
 354 312 346 360 278 360 c 0
 215 360 171 296 171 268 c 2
 171 69 l 2
 171 48 175 32 189 32 c 2
 204 32 l 2
 216 32 227 30 227 16 c 0
 227 1 217 -2 208 -2 c 0
 182 -2 160 0 132 0 c 0
 103 0 61 -2 45 -2 c 0
 32 -2 29 6 29 16 c 0
 29 28 35 32 49 32 c 2
 73 32 l 2
 88 32 90 62 90 85 c 2
 90 484 l 2
 90 520 89 565 88 597 c 0
 88 612 87 626 73 626 c 2
 40 625 l 6
 34 625 24 625 24 642 c 4
 24 656 26 659 37 659 c 0xec
 110 662 156 674 162 674 c 0
 171 674 173 667 173 657 c 0xdc
EndSplineSet
Layer: 2
SplineSet
171 319 m 5xdc
 171 319 210 392 308 392 c 4
 384 392 435 351 435 289 c 6
 435 74 l 6
 435 46 438 32 452 32 c 6
 473 32 l 6
 485 32 497 30 497 16 c 4
 497 1 490 -2 481 -2 c 4
 455 -2 423 0 395 0 c 4
 366 0 334 -2 318 -2 c 4
 301 -2 295 3 295 16 c 4
 295 31 310 32 322 32 c 6
 339 32 l 6
 354 32 352 62 353 85 c 4
 354 108 354 138 354 166 c 6
 354 246 l 6
 354 312 346 360 278 360 c 4
 210 360 171 293 171 265 c 6
 171 69 l 6
 171 48 175 32 189 32 c 6
 204 32 l 6
 216 32 227 30 227 16 c 4
 227 1 217 -2 208 -2 c 4
 182 -2 160 0 132 0 c 4
 103 0 61 -2 45 -2 c 4
 32 -2 29 6 29 16 c 4
 29 28 35 32 49 32 c 6
 73 32 l 6
 88 32 90 62 90 85 c 6
 90 482 l 6
 90 518 90 560 89 592 c 4
 89 607 89 626 68 626 c 6
 44 625 l 6
 32 625 25 630 25 639 c 4
 25 646 27 657 38 657 c 4xec
 90 659 151 673 163 673 c 4
 176 673 174 665 174 655 c 4
 174 647 171 369 171 319 c 5xdc
EndSplineSet
EndChar

StartChar: i
Encoding: 105 105 8
Width: 272
VWidth: 0
Flags: HW
HStem: -2 34<41.0205 99.6456 187.914 248.968> 351 30<45.0029 101.422> 370 20G<170.5 182> 566 108<100.676 187.324>
VStem: 90 108<576.676 663.324> 105 81<32 351.991>
LayerCount: 3
Fore
SplineSet
90 620 m 0x98
 90 650 114 674 144 674 c 0
 174 674 198 650 198 620 c 0
 198 590 174 566 144 566 c 0
 114 566 90 590 90 620 c 0x98
104 328 m 0
 104 340 103 352 92 352 c 0
 86 352 77 351 61 351 c 0
 49 351 45 357 45 366 c 0
 45 373 46 381 57 381 c 0xd4
 128 381 165 390 176 390 c 0
 188 390 190 380 190 370 c 0
 190 364 186 149 186 119 c 2
 186 85 l 2
 186 50 187 32 205 32 c 2
 226 32 l 2
 238 32 249 30 249 16 c 0
 249 1 239 -2 230 -2 c 0
 204 -2 175 0 147 0 c 0
 118 0 73 -2 57 -2 c 0
 44 -2 41 6 41 16 c 0
 41 28 47 32 61 32 c 2
 88 32 l 2
 105 32 105 80 105 119 c 2
 105 250 l 2xb4
 105 278 105 304 104 328 c 0
EndSplineSet
Layer: 2
SplineSet
90 620 m 0x98
 90 650 114 674 144 674 c 0
 174 674 198 650 198 620 c 0
 198 590 174 566 144 566 c 0
 114 566 90 590 90 620 c 0x98
104 328 m 0
 104 340 103 352 92 352 c 0
 86 352 77 351 61 351 c 0
 49 351 45 357 45 366 c 0
 45 373 46 381 57 381 c 0xd4
 128 381 165 390 176 390 c 0
 188 390 190 380 190 370 c 0
 190 364 186 149 186 119 c 2
 186 85 l 2
 186 50 187 32 205 32 c 2
 226 32 l 2
 238 32 249 30 249 16 c 0
 249 1 239 -2 230 -2 c 0
 204 -2 175 0 147 0 c 0
 118 0 73 -2 57 -2 c 0
 44 -2 41 6 41 16 c 0
 41 28 47 32 61 32 c 2
 88 32 l 2
 103 32 105 80 105 119 c 2
 105 250 l 2xb4
 105 278 105 304 104 328 c 0
EndSplineSet
EndChar

StartChar: j
Encoding: 106 106 9
Width: 272
VWidth: 0
Flags: W
HStem: -248 27<4.14029 67.3437> 344 27<48.0645 104.751> 372 20G<175.5 187.5> 566 108<100.676 187.324>
VStem: -89 87<-213.664 -147.02> 90 108<576.676 663.324> 109 81<-163.681 343.989>
LayerCount: 3
Fore
SplineSet
188 -89 m 0xfa
 185 -190 108 -248 9 -248 c 0
 -56 -248 -89 -226 -89 -187 c 0
 -89 -165 -68 -137 -40 -137 c 0
 -16 -137 -4 -160 -2 -179 c 0
 -1 -189 -2 -207 5 -214 c 0
 11 -220 16 -221 29 -221 c 0
 109 -221 109 -106 109 -29 c 2
 109 25 l 2
 109 122 109 220 107 313 c 0
 107 329 104 344 91 344 c 0
 85 344 76 341 62 339 c 0
 50 337 48 346 48 355 c 0
 48 362 49 370 60 371 c 0
 108 376 170 392 181 392 c 0
 194 392 192 383 192 373 c 2
 192 373 190 322 190 180 c 2
 190 34 l 2
 190 -12 189 -52 188 -89 c 0xfa
90 620 m 0xfc
 90 650 114 674 144 674 c 0
 174 674 198 650 198 620 c 0
 198 590 174 566 144 566 c 0
 114 566 90 590 90 620 c 0xfc
EndSplineSet
Layer: 2
SplineSet
188 -89 m 4xfa
 185 -190 108 -248 9 -248 c 4
 -56 -248 -89 -226 -89 -187 c 4
 -89 -165 -68 -137 -40 -137 c 4
 -16 -137 -4 -160 -2 -179 c 4
 -1 -189 -2 -207 5 -214 c 4
 11 -220 16 -221 29 -221 c 4
 109 -221 109 -106 109 -29 c 6
 109 25 l 6
 109 122 109 220 107 313 c 4
 107 329 104 343 91 343 c 4
 85 343 76 341 62 339 c 4
 50 337 48 346 48 355 c 4
 48 362 49 368 60 369 c 4
 108 374 170 390 181 390 c 4
 194 390 192 381 192 371 c 6
 192 371 190 322 190 180 c 6
 190 34 l 6
 190 -12 189 -52 188 -89 c 4xfa
90 620 m 4xfc
 90 650 114 674 144 674 c 4
 174 674 198 650 198 620 c 4
 198 590 174 566 144 566 c 4
 114 566 90 590 90 620 c 4xfc
EndSplineSet
EndChar

StartChar: k
Encoding: 107 107 10
Width: 476
VWidth: 0
Flags: W
HStem: -2 32<27.0236 81.2098 168.744 219.935 248.078 279.999 421.143 467.951> 352 22<241.003 274.978 360.924 405.857> 625 34<21.0073 83.4844> 654 20G<156 163.5>
VStem: 85 85<206.96 625.797> 85 81<30 170.994 197 625.797>
LayerCount: 3
Fore
SplineSet
170 657 m 0xd8
 168 527 163 411 163 197 c 1
 192 224 280 307 280 325 c 0
 280 337 278 346 249 352 c 0
 245 353 241 358 241 363 c 0
 241 369 245 374 250 374 c 2
 393 374 l 2
 405 374 406 367 406 359 c 0
 406 350 398 347 389 347 c 0
 363 346 349 336 326 319 c 0
 293 294 260 259 240 238 c 0
 231 229 227 224 227 220 c 0
 227 216 232 212 240 203 c 0
 276 167 360 78 421 32 c 0
 424 30 430 30 433 30 c 0
 451 30 468 28 468 15 c 0
 468 0 458 -2 449 -2 c 0
 423 -2 381 0 353 0 c 0
 324 0 280 -2 264 -2 c 0
 251 -2 248 6 248 16 c 0
 248 29 260 29 273 30 c 0
 279 30 280 33 280 37 c 0
 280 46 268 61 264 66 c 0
 243 94 217 121 184 163 c 0
 182 166 179 171 176 171 c 0
 169 171 166 163 166 146 c 2
 166 69 l 2
 166 48 171 30 185 30 c 2
 198 30 l 2
 210 30 220 30 220 16 c 0
 220 1 213 -2 204 -2 c 0
 178 -2 156 0 128 0 c 0
 99 0 57 -2 41 -2 c 0
 28 -2 27 6 27 16 c 0
 27 28 33 30 47 30 c 2
 69 30 l 2
 84 30 83 62 84 85 c 0
 85 116 85 151 85 188 c 2xd4
 85 593 l 2
 85 608 84 626 70 626 c 2
 37 625 l 2
 31 625 21 625 21 642 c 0
 21 656 23 659 34 659 c 0xe8
 107 662 153 674 159 674 c 0
 168 674 170 667 170 657 c 0xd8
EndSplineSet
Layer: 2
SplineSet
170 657 m 4xd8
 168 527 163 408 163 194 c 5
 192 221 280 304 280 322 c 4
 280 334 278 346 249 352 c 4
 245 353 241 358 241 363 c 4
 241 369 245 374 250 374 c 6
 393 374 l 6
 405 374 406 367 406 359 c 4
 406 350 398 347 389 347 c 4
 363 346 349 336 326 319 c 4
 293 294 260 259 240 238 c 4
 231 229 227 224 227 220 c 4
 227 216 232 212 240 203 c 4
 276 167 360 78 421 32 c 4
 424 30 430 30 433 30 c 4
 451 30 468 28 468 15 c 4
 468 0 458 -2 449 -2 c 4
 423 -2 381 0 353 0 c 4
 324 0 280 -2 264 -2 c 4
 251 -2 248 6 248 16 c 4
 248 29 260 29 273 30 c 4
 279 30 280 33 280 37 c 4
 280 46 268 61 264 66 c 4
 243 94 217 121 184 163 c 4
 182 166 179 171 176 171 c 4
 169 171 166 163 166 146 c 6
 166 69 l 6
 166 48 171 30 185 30 c 6
 198 30 l 6
 210 30 220 30 220 16 c 4
 220 1 213 -2 204 -2 c 4
 178 -2 156 0 128 0 c 4
 99 0 57 -2 41 -2 c 4
 28 -2 27 6 27 16 c 4
 27 28 33 30 47 30 c 6
 69 30 l 6
 84 30 83 62 84 85 c 4
 85 116 85 151 85 188 c 6xd4
 85 593 l 6
 85 608 84 626 70 626 c 6
 37 625 l 6
 31 625 21 625 21 642 c 4
 21 656 23 659 34 659 c 4xe8
 107 662 153 674 159 674 c 4
 168 674 170 667 170 657 c 4xd8
EndSplineSet
EndChar

StartChar: l
Encoding: 108 108 11
Width: 278
VWidth: 0
Flags: W
HStem: -2 33<27.0176 101.111 189.431 263.77> 625 34<40.0073 102.484> 654 20G<175 182.5>
VStem: 105 81<31.1406 625.828>
LayerCount: 3
Fore
SplineSet
186 476 m 2xb0
 186 237 l 2
 186 166 186 134 187 76 c 0
 187 56 189 31 202 31 c 2
 242 32 l 2
 254 32 264 32 264 18 c 0
 264 3 255 -2 246 -2 c 0
 220 -2 172 0 144 0 c 0
 115 0 57 -2 41 -2 c 0
 28 -2 27 6 27 16 c 0
 27 28 33 31 47 31 c 6
 87 30 l 2
 102 30 105 62 105 85 c 2
 105 483 l 2
 105 519 105 561 104 593 c 0
 104 608 103 626 89 626 c 2
 56 625 l 2
 50 625 40 625 40 642 c 0
 40 656 42 659 53 659 c 0xd0
 126 662 172 674 178 674 c 0
 187 674 189 667 189 657 c 0
 189 651 186 524 186 476 c 2xb0
EndSplineSet
Layer: 2
SplineSet
105 483 m 6xb0
 105 519 105 561 104 593 c 4
 104 608 104 627 83 627 c 6
 59 626 l 6
 47 626 40 631 40 640 c 4
 40 647 42 658 53 658 c 4xd0
 105 660 169 674 181 674 c 4
 194 674 192 666 192 656 c 4
 192 650 186 524 186 476 c 6
 186 237 l 6
 186 166 186 134 187 76 c 4
 187 56 189 31 202 31 c 6
 242 32 l 6
 254 32 264 32 264 18 c 4
 264 3 255 -2 246 -2 c 4
 220 -2 172 0 144 0 c 4
 115 0 57 -2 41 -2 c 4
 28 -2 27 6 27 16 c 4
 27 28 33 31 47 31 c 6
 87 30 l 6
 102 30 105 62 105 85 c 6
 105 483 l 6xb0
EndSplineSet
EndChar

StartChar: m
Encoding: 109 109 12
Width: 740
VWidth: 0
Flags: W
HStem: -2 36<28.0756 88.409 174.056 226.993 277.008 328.432 416.406 474.991 515.011 572.605 657.984 718.991> 343 31<30.0147 84.9386> 360 32<235.04 311.288 468.812 552.554>
VStem: 90 81<34.0171 301.742 303 341.055> 333 81<34.1555 322.393> 576 81<33.0282 342.795>
CounterMasks: 1 1c
LayerCount: 3
Fore
SplineSet
275 360 m 0xbc
 208 360 171 287 171 203 c 2
 171 171 l 2
 171 137 172 103 173 69 c 0
 173 39 178 32 206 32 c 0
 218 32 227 30 227 16 c 0
 227 1 217 -2 208 -2 c 0
 182 -2 160 0 132 0 c 0
 103 0 61 -2 45 -2 c 0
 32 -2 28 8 28 18 c 0
 28 30 34 34 48 34 c 2
 76 34 l 2
 90 34 90 62 90 85 c 2
 90 173 l 2
 90 238 90 292 89 311 c 0
 88 326 86 343 52 343 c 2
 42 343 l 2
 35 343 30 349 30 358 c 0
 30 365 35 373 46 374 c 0xdc
 96 379 145 392 156 392 c 0
 169 392 169 385 169 375 c 2
 169 303 l 1
 169 303 202 392 299 392 c 0
 343 392 394 368 411 321 c 1
 425 350 467 392 541 392 c 0
 621 392 657 349 657 269 c 2
 657 64 l 2
 657 43 664 33 676 33 c 2
 695 33 l 2
 707 33 719 30 719 16 c 0
 719 1 712 -2 703 -2 c 0
 677 -2 643 0 615 0 c 0
 586 0 554 -2 538 -2 c 0
 521 -2 515 3 515 16 c 0
 515 31 530 32 542 32 c 6
 559 32 l 2
 574 32 574 62 575 85 c 0
 576 108 576 138 576 166 c 2
 576 246 l 2
 576 312 571 360 503 360 c 0
 473 360 434 333 424 301 c 0
 419 283 414 254 414 191 c 2
 414 74 l 2
 414 31 432 34 451 32 c 0
 463 31 475 30 475 16 c 0
 475 1 466 -2 457 -2 c 0
 431 -2 401 0 373 0 c 0
 344 0 314 -2 298 -2 c 0
 281 -2 277 3 277 16 c 0
 277 31 288 34 300 34 c 2
 315 34 l 2
 330 34 330 62 331 85 c 0
 333 119 333 157 333 195 c 2
 333 248 l 2
 333 304 326 360 275 360 c 0xbc
EndSplineSet
Layer: 2
SplineSet
275 361 m 4
 208 361 171 287 171 203 c 4
 171 158 172 114 173 69 c 4
 173 39 178 32 206 32 c 4
 218 32 227 30 227 16 c 4
 227 1 217 -2 208 -2 c 4
 182 -2 160 0 132 0 c 4
 103 0 61 -2 45 -2 c 4
 32 -2 28 8 28 18 c 4
 28 30 34 34 48 34 c 6
 74 34 l 6
 88 34 88 62 88 85 c 6
 88 173 l 6
 88 238 88 292 87 311 c 4
 86 326 86 343 52 343 c 6
 42 343 l 6
 35 343 30 349 30 358 c 4
 30 365 35 373 46 374 c 4
 96 379 145 392 156 392 c 4
 169 392 169 385 169 375 c 6
 169 303 l 5
 169 303 202 392 299 392 c 4
 343 392 394 368 411 321 c 5
 425 350 467 392 541 392 c 4
 621 392 660 349 660 269 c 6
 659 64 l 6
 659 43 664 33 676 33 c 6
 695 33 l 6
 707 33 719 30 719 16 c 4
 719 1 712 -2 703 -2 c 4
 677 -2 643 0 615 0 c 4
 586 0 554 -2 538 -2 c 4
 521 -2 515 3 515 16 c 4
 515 31 530 32 542 32 c 6
 559 32 l 6
 574 32 573 62 574 85 c 4
 575 108 575 138 575 166 c 6
 575 246 l 6
 575 312 571 360 503 360 c 4
 473 360 434 333 424 301 c 4
 419 283 416 252 415 191 c 6
 414 74 l 6
 414 31 432 34 451 32 c 4
 463 31 475 30 475 16 c 4
 475 1 466 -2 457 -2 c 4
 431 -2 401 0 373 0 c 4
 344 0 314 -2 298 -2 c 4
 281 -2 277 3 277 16 c 4
 277 31 288 34 300 34 c 6
 315 34 l 6
 330 34 328 62 329 85 c 4
 331 119 331 157 331 195 c 6
 331 248 l 6
 331 304 326 361 275 361 c 4
EndSplineSet
EndChar

StartChar: n
Encoding: 110 110 13
Width: 506
VWidth: 0
Flags: W
HStem: -2 36<28.0756 84.9324 169.334 223.993 287.008 338.386 424.282 482.794> 346 29<35.0147 82.1035> 360 32<238.351 319.261>
VStem: 86 75<294 344.883> 87 81<34.0786 299.941> 342 81<34.0728 343.89>
LayerCount: 3
Fore
SplineSet
423 74 m 2xb4
 423 33 430 33 454 33 c 2
 467 33 l 2
 477 33 483 30 483 20 c 0
 483 2 475 -2 465 -2 c 0
 439 -2 410 0 382 0 c 0
 353 0 325 -2 309 -2 c 0
 292 -2 287 3 287 16 c 0
 287 31 298 34 310 34 c 2
 326 34 l 2
 341 34 339 62 340 85 c 0
 342 119 342 157 342 195 c 2
 342 248 l 2
 342 304 335 360 282 360 c 0
 226 360 168 305 168 213 c 2
 168 69 l 2
 168 39 175 31 203 31 c 0
 215 31 224 30 224 16 c 0
 224 1 214 -2 205 -2 c 0
 179 -2 160 0 132 0 c 0
 103 0 61 -2 45 -2 c 0
 32 -2 28 8 28 18 c 0
 28 30 34 34 48 34 c 2
 72 34 l 2
 86 34 87 62 87 85 c 2
 87 173 l 2xac
 87 238 87 292 86 311 c 0
 85 326 86 346 52 346 c 2
 47 346 l 2
 40 346 35 352 35 361 c 0
 35 368 40 375 51 375 c 0xd4
 100 376 144 387 151 387 c 0
 164 387 161 380 161 370 c 2
 161 294 l 1
 161 294 202 392 304 392 c 0
 332 392 423 390 423 265 c 2
 423 74 l 2xb4
EndSplineSet
Layer: 2
SplineSet
424 74 m 6xb8
 424 33 431 33 455 33 c 6
 468 33 l 6
 478 33 484 30 484 20 c 4
 484 2 476 -2 466 -2 c 4
 440 -2 410 0 382 0 c 4
 353 0 323 -2 307 -2 c 4
 290 -2 285 3 285 16 c 4
 285 31 296 34 308 34 c 6
 324 34 l 6
 339 34 337 62 338 85 c 4
 340 119 340 157 340 195 c 6
 340 248 l 6
 340 304 336 363 285 363 c 4xb8
 231 363 166 302 166 218 c 4
 166 173 167 114 168 69 c 4
 168 39 175 31 203 31 c 4
 215 31 224 30 224 16 c 4
 224 1 214 -2 205 -2 c 4
 179 -2 160 0 132 0 c 4
 103 0 61 -2 45 -2 c 4
 32 -2 28 8 28 18 c 4
 28 30 34 34 48 34 c 6
 72 34 l 6
 86 34 87 62 87 85 c 6
 87 173 l 6
 87 238 87 292 86 311 c 4
 85 326 86 346 52 346 c 6
 47 346 l 6
 40 346 35 352 35 361 c 4
 35 368 40 375 51 375 c 4xd8
 100 376 144 386 151 386 c 4
 164 386 161 379 161 369 c 6
 161 293 l 5
 161 293 200 391 304 391 c 4
 332 391 424 390 424 265 c 6
 424 74 l 6xb8
EndSplineSet
EndChar

StartChar: o
Encoding: 111 111 14
Width: 484
VWidth: 0
Flags: W
HStem: -16 27<191.281 289.963> 373 23<193.702 286.087>
VStem: 35 91<99.3062 277.68> 352 87<101.642 289.612>
LayerCount: 3
Fore
SplineSet
439 202 m 0
 439 89 363 -16 233 -16 c 0
 119 -16 35 80 35 194 c 0
 35 315 159 396 248 396 c 0
 351 396 439 310 439 202 c 0
243 373 m 0
 159 373 126 305 126 188 c 0
 126 89 158 11 241 11 c 0
 337 11 352 114 352 198 c 0
 352 278 325 373 243 373 c 0
EndSplineSet
Layer: 2
SplineSet
439 202 m 4
 439 89 363 -16 233 -16 c 4
 119 -16 34 80 34 194 c 4
 34 315 159 396 248 396 c 4
 351 396 439 310 439 202 c 4
243 373 m 4
 159 373 126 305 126 188 c 4
 126 89 158 11 241 11 c 4
 337 11 352 114 352 198 c 4
 352 278 325 373 243 373 c 4
EndSplineSet
EndChar

StartChar: p
Encoding: 112 112 15
Width: 524
VWidth: 0
Flags: W
HStem: -274 34<16.0141 88.5807 177.701 246.985> -14 25<230.012 328.581> 359 27<34.0037 90.052> 366 26<234.12 329.61>
VStem: 93 78<-239.806 48 52.6667 320.731 323 358.926> 401 91<95.548 284.392>
LayerCount: 3
Fore
SplineSet
69 359 m 2xec
 51 359 l 2
 35 359 34 364 34 373 c 0
 34 381 39 386 54 386 c 2
 62 386 l 2xec
 94 386 152 392 156 392 c 0
 168 392 170 386 170 370 c 2
 170 323 l 1
 201 364 234 392 300 392 c 0xdc
 401 392 492 311 492 188 c 0
 492 85 417 -14 294 -14 c 0
 202 -14 171 48 171 48 c 1
 171 -3 l 2
 171 -67 171 -114 173 -187 c 0
 174 -216 178 -240 195 -240 c 2
 230 -240 l 2
 242 -240 247 -242 247 -256 c 0
 247 -271 242 -274 233 -274 c 0
 207 -274 169 -272 141 -272 c 0
 112 -272 47 -274 31 -274 c 0
 18 -274 16 -266 16 -256 c 0
 16 -244 19 -240 33 -240 c 2
 76 -240 l 2
 91 -240 90 -210 91 -187 c 0
 92 -164 93 32 93 60 c 2
 93 327 l 2
 93 353 82 359 69 359 c 2xec
401 188 m 0
 401 285 360 366 283 366 c 0xdc
 240 366 218 347 198 327 c 0
 172 301 171 265 171 236 c 2
 171 127 l 2
 171 31 241 11 277 11 c 0
 371 11 401 97 401 188 c 0
EndSplineSet
EndChar

StartChar: q
Encoding: 113 113 16
Width: 500
VWidth: 0
Flags: HW
HStem: -274 33<271.006 342.948 431.936 476.996> -14 30<192.889 293.381> 369 23<197.556 299.415>
VStem: 36 91<84.2984 275.297> 346 81<-240.771 47 49.0378 337.25>
LayerCount: 3
Fore
SplineSet
429 -188 m 0
 430 -226 426 -242 455 -242 c 2
 462 -242 l 2
 474 -242 477 -245 477 -258 c 0
 477 -273 472 -274 463 -274 c 0
 452 -274 412 -272 388 -272 c 0
 359 -272 302 -274 286 -274 c 0
 273 -274 271 -268 271 -258 c 0
 271 -246 274 -241 288 -241 c 2
 331 -241 l 2
 346 -241 344 -211 345 -188 c 0
 346 -170 346 -120 346 -70 c 2
 346 47 l 1
 323 8 276 -14 222 -14 c 0
 100 -14 36 78 36 178 c 0
 36 288 112 392 238 392 c 0
 319 392 351 343 351 343 c 9
 378 361 404 390 421 390 c 0
 434 390 434 370 434 356 c 0
 434 346 427 246 427 225 c 2
 427 144 l 2
 427 30 427 -80 429 -188 c 0
127 185 m 0
 127 114 148 16 251 16 c 0
 274 16 291 22 305 31 c 0
 342 54 349 112 349 168 c 2
 349 256 l 2
 349 322 318 369 250 369 c 0
 162 369 127 299 127 185 c 0
EndSplineSet
EndChar

StartChar: r
Encoding: 114 114 17
Width: 358
VWidth: 0
Flags: HW
HStem: -2 38<33.0176 93.3286 180.134 253.971> 349 32<34.0118 90.4633> 351 45<227.58 292.584>
VStem: 96 81<36.1621 348.968>
LayerCount: 3
Fore
SplineSet
94 326 m 0xb0
 93 338 85 349 73 349 c 2
 50 349 l 2
 38 349 34 355 34 364 c 0
 34 371 35 381 46 381 c 0xd0
 101 383 151 393 162 393 c 0
 174 393 174 383 174 373 c 2
 174 308 l 1
 192 345 233 396 285 396 c 0
 315 396 345 378 345 346 c 0
 345 323 328 302 305 302 c 0
 272 302 270 351 247 351 c 0
 228 351 200 322 187 286 c 0
 180 266 177 246 177 224 c 2
 177 84 l 2
 177 60 181 35 199 35 c 2
 234 35 l 2
 246 35 253 30 253 16 c 0
 253 1 243 -2 234 -2 c 0
 208 -2 168 0 140 0 c 0
 111 0 67 -2 51 -2 c 0
 38 -2 34 6 34 16 c 0
 34 28 37 34 51 34 c 2
 80 34 l 2
 95 34 94 61 95 84 c 0
 96 105 96 131 96 158 c 2
 96 248 l 2
 96 276 96 302 94 326 c 0xb0
EndSplineSet
Layer: 2
SplineSet
94 326 m 4xb0
 93 338 85 349 73 349 c 6
 50 349 l 6
 38 349 34 355 34 364 c 4
 34 371 35 381 46 381 c 4xd0
 101 383 151 393 162 393 c 4
 174 393 174 383 174 373 c 6
 174 308 l 5
 192 345 233 396 285 396 c 4
 315 396 345 378 345 346 c 4
 345 323 328 302 305 302 c 4
 272 302 270 351 247 351 c 4
 228 351 200 322 187 286 c 4
 180 266 177 246 177 224 c 6
 177 84 l 6
 177 60 181 36 199 36 c 6
 232 36 l 6
 244 36 254 30 254 16 c 4
 254 1 244 -2 235 -2 c 4
 209 -2 168 0 140 0 c 4
 111 0 67 -2 51 -2 c 4
 38 -2 33 6 33 16 c 4
 33 28 39 35 53 35 c 6
 80 35 l 6
 95 35 94 61 95 84 c 4
 96 105 96 131 96 158 c 6
 96 248 l 6
 96 276 96 302 94 326 c 4xb0
EndSplineSet
EndChar

StartChar: s
Encoding: 115 115 18
Width: 340
VWidth: 0
Flags: W
HStem: -16 30<121.423 220.492> -3 21G<48 54> 368 24<134.537 214.143>
VStem: 44 66<260.992 345.857> 49 22<83.5435 131.948> 243 69<35.3626 131.204> 262 17<265.932 301.532>
DStem2: 169 245 146 170 0.948683 -0.316228<-66.4736 99.9298>
LayerCount: 3
Fore
SplineSet
166 392 m 0xb4
 201 392 228 375 244 375 c 0
 250 375 255 377 260 379 c 2
 270 384 l 2
 273 386 276 387 278 387 c 0
 285 387 286 377 286 368 c 0
 286 349 279 312 279 276 c 0
 279 263 265 262 262 274 c 0xb2
 248 331 223 368 170 368 c 0
 130 368 110 337 110 304 c 0
 110 265 137 256 169 245 c 2
 214 230 l 2
 243 220 267 215 287 187 c 0
 305 163 312 122 312 107 c 0
 312 27 250 -16 172 -16 c 0xb4
 133 -16 99 11 92 11 c 0
 87 11 84 11 74 6 c 2
 65 1 l 2
 60 -2 56 -3 52 -3 c 0x74
 44 -3 38 3 38 14 c 0
 38 25 48 80 49 116 c 0
 49 124 54 132 59 132 c 0
 64 132 69 130 71 121 c 0xac
 72 113 75 104 77 97 c 0
 98 21 145 14 180 14 c 0
 216 14 243 41 243 85 c 0
 243 122 208 149 172 161 c 2
 146 170 l 2
 108 183 86 187 59 227 c 0
 49 242 44 258 44 283 c 0
 44 347 99 392 166 392 c 0xb4
EndSplineSet
EndChar

StartChar: t
Encoding: 116 116 19
Width: 298
VWidth: 0
Flags: W
HStem: -14 44<169.268 242.753> 345 39<161.057 255>
VStem: 76 81<39.7706 344.965>
LayerCount: 3
Fore
SplineSet
72 61 m 0
 72 127 76 229 76 300 c 2
 76 328 l 2
 76 338 72 345 62 345 c 2
 56 345 l 2
 46 345 41 349 41 355 c 0
 41 360 45 366 50 371 c 0
 107 425 113 451 127 482 c 0
 132 493 136 502 150 502 c 0
 158 502 166 497 166 485 c 0
 166 459 162 422 161 400 c 0
 161 383 159 383 176 383 c 2
 231 384 l 2
 248 384 255 379 255 371 c 2
 255 361 l 2
 255 344 246 345 235 345 c 2
 167 346 l 2
 159 346 159 344 158 329 c 0
 157 301 157 233 157 177 c 2
 157 131 l 2
 157 75 162 30 206 30 c 0
 252 30 241 73 260 73 c 0
 267 73 275 68 275 58 c 0
 275 51 269 30 257 18 c 0
 239 0 208 -14 178 -14 c 0
 90 -14 72 42 72 61 c 0
EndSplineSet
Layer: 2
SplineSet
70 61 m 4
 70 127 76 229 76 300 c 6
 76 328 l 6
 76 338 72 345 62 345 c 6
 56 345 l 6
 46 345 41 349 41 355 c 4
 41 360 45 366 50 371 c 4
 107 425 113 451 127 482 c 4
 132 493 136 502 150 502 c 4
 158 502 166 497 166 485 c 4
 166 459 162 422 161 400 c 4
 161 383 159 383 176 383 c 6
 231 384 l 6
 248 384 255 379 255 371 c 6
 255 361 l 6
 255 344 246 345 235 345 c 6
 167 346 l 6
 159 346 159 344 158 329 c 4
 157 301 157 233 157 177 c 6
 157 131 l 6
 157 75 162 30 206 30 c 4
 252 30 241 73 260 73 c 4
 267 73 275 68 275 58 c 4
 275 51 269 30 257 18 c 4
 239 0 208 -14 178 -14 c 4
 90 -14 70 42 70 61 c 4
EndSplineSet
EndChar

StartChar: u
Encoding: 117 117 20
Width: 518
VWidth: 0
Flags: HW
HStem: -14 38<191.878 281.057> -2 21G<366 376> 3 30<440.175 494.874> 352 28<29.0029 81.3379 291.084 349.068>
VStem: 85 81<47.635 351.973> 351 81<38.0781 353.997>
LayerCount: 3
Fore
SplineSet
85 108 m 2x9c
 85 283 l 2
 85 315 85 352 70 352 c 0
 65 352 49 351 45 351 c 0
 33 351 29 357 29 366 c 0
 29 373 30 380 41 380 c 0
 79 380 145 383 156 383 c 0
 168 383 172 377 172 367 c 0
 172 361 166 338 166 185 c 2
 166 162 l 2
 166 67 182 24 243 24 c 0x9c
 306 24 351 91 351 158 c 2
 351 317 l 2
 351 348 349 354 337 354 c 0
 330 354 321 352 307 352 c 0
 295 352 291 359 291 368 c 0
 291 375 292 380 303 380 c 0
 361 380 410 383 421 383 c 0
 433 383 434 375 434 365 c 0
 434 359 432 343 432 143 c 2
 432 87 l 2
 432 46 442 37 472 34 c 0
 484 33 495 30 495 16 c 0
 495 3 485 3 476 3 c 0x3c
 400 2 380 -2 372 -2 c 0x5c
 357 -2 360 23 357 83 c 1
 346 58 296 -14 212 -14 c 0
 178 -14 149 -5 128 11 c 0
 99 32 85 58 85 108 c 2x9c
EndSplineSet
Layer: 2
SplineSet
85 252 m 6x9c
 85 280 85 307 84 331 c 4
 84 343 77 352 70 352 c 4
 65 352 49 351 45 351 c 4
 33 351 29 357 29 366 c 4
 29 373 30 380 41 380 c 4
 79 380 145 382 156 382 c 4
 168 382 172 377 172 367 c 4
 172 361 166 284 166 198 c 6
 166 162 l 6
 166 67 182 24 243 24 c 4x9c
 306 24 351 91 351 158 c 6
 351 330 l 6
 351 342 346 354 334 354 c 4
 328 354 323 352 307 352 c 4
 295 352 291 359 291 368 c 4
 291 375 292 380 303 380 c 4
 361 380 409 382 420 382 c 4
 432 382 433 375 433 365 c 4
 433 358 432 189 432 87 c 4
 432 46 442 36 472 34 c 4
 484 33 495 32 495 18 c 4
 495 3 485 3 476 3 c 4x3c
 400 2 380 -2 372 -2 c 4x5c
 358 -2 357 2 357 12 c 6
 357 83 l 5
 346 58 296 -14 212 -14 c 4
 178 -14 149 -5 128 11 c 4
 99 32 85 58 85 108 c 6
 85 252 l 6x9c
EndSplineSet
EndChar

StartChar: v
Encoding: 118 118 21
Width: 452
VWidth: 0
Flags: W
HStem: -16 21G<204.5 212> 356 26<15.0354 39 286.074 326.144 393.449 431.996>
VStem: 334 98<316.5 372>
DStem2: 259 141 289 145 0.408366 0.912818<-23.0956 194.548>
LayerCount: 3
Fore
SplineSet
94 380 m 0
 117 380 141 381 178 382 c 0
 191 382 192 373 192 367 c 0
 192 352 159 360 159 346 c 0
 159 330 212 201 234 146 c 0
 241 129 244 121 247 121 c 0
 250 121 252 127 259 141 c 0
 275 173 303 235 326 291 c 0
 331 302 334 312 334 321 c 0
 334 339 323 352 300 357 c 0
 292 359 286 364 286 370 c 0
 286 375 290 381 299 381 c 0
 321 381 339 380 359 380 c 0
 379 380 394 381 411 381 c 0
 426 381 432 375 432 369 c 0
 432 365 431 360 424 358 c 0
 390 347 377 331 363 302 c 2
 289 145 l 2
 277 120 245 44 227 -2 c 0
 224 -10 216 -16 208 -16 c 0
 201 -16 194 -11 191 -2 c 2
 147 123 l 2
 122 192 97 255 66 326 c 0
 59 340 50 349 39 352 c 2
 25 356 l 2
 18 358 15 363 15 370 c 0
 15 376 17 382 23 382 c 0
 56 382 77 380 94 380 c 0
EndSplineSet
EndChar

StartChar: w
Encoding: 119 119 22
Width: 694
VWidth: 0
Flags: W
HStem: -16 21G<217.5 224.5 453 460.5> 354 28<28.3484 66.2529 279.187 301 531.074 570.889 625.082 666.996>
VStem: 327 82<271.894 354.5> 574 93<318.5 371>
DStem2: 261 141 286 136 0.359227 0.93325<-22.9214 149.83> 500 138 519 114 0.380439 0.924806<-23.0041 198.85>
LayerCount: 3
Fore
SplineSet
100 380 m 0
 123 380 151 381 188 382 c 0
 201 382 202 375 202 369 c 0
 202 350 164 362 164 337 c 0
 164 321 214 201 236 146 c 0
 243 129 246 121 249 121 c 0
 252 121 254 127 261 141 c 0
 269 158 298 228 315 272 c 0
 321 289 327 302 327 314 c 0
 327 318 326 323 324 327 c 2
 315 346 l 2
 313 351 308 354 301 356 c 2
 291 358 l 2
 284 359 279 363 279 370 c 0
 279 379 286 381 303 381 c 0
 319 381 346 380 352 380 c 0
 373 380 395 381 428 382 c 0
 441 382 442 375 442 369 c 0
 442 354 409 362 409 348 c 0
 409 332 453 198 475 143 c 0
 482 126 485 118 488 118 c 0
 491 118 493 124 500 138 c 0
 516 170 543 237 566 293 c 0
 571 304 574 314 574 323 c 0
 574 341 568 351 545 356 c 0
 537 358 531 363 531 369 c 0
 531 374 535 381 544 381 c 0
 566 381 577 380 597 380 c 0
 617 380 629 381 646 381 c 0
 661 381 667 374 667 368 c 0
 667 364 666 359 659 357 c 0
 625 346 613 334 600 303 c 2
 519 114 l 1
 477 4 l 2
 472 -10 464 -16 457 -16 c 0
 449 -16 440 -8 436 6 c 2
 397 125 l 2
 384 164 369 211 353 252 c 0
 348 264 346 270 344 270 c 0
 342 270 339 264 334 252 c 2
 286 136 l 2
 276 111 254 46 237 0 c 0
 233 -10 228 -16 221 -16 c 0
 214 -16 206 -9 202 0 c 0
 154 113 119 210 72 328 c 0
 66 343 60 351 50 354 c 0
 38 358 28 358 28 372 c 0
 28 378 38 382 44 382 c 0
 77 382 83 380 100 380 c 0
EndSplineSet
EndChar

StartChar: x
Encoding: 120 120 23
Width: 484
VWidth: 0
Flags: HW
HStem: -2 33<10.3587 75.0606 264.048 298.999 418.106 462.992> 354 27<10.0088 62.0553 170.003 199.996 377.441 434.953>
DStem2: 183 318 72 329 0.642871 -0.765974<-26.486 103.188 139.913 289.48> 107 79 136 66 0.656399 0.754414<-11.554 127.208 211.093 334.436>
LayerCount: 3
Fore
SplineSet
194 178 m 1
 194 178 137 254 72 329 c 0
 62 341 53 354 33 354 c 2
 20 354 l 2
 13 354 10 361 10 368 c 0
 10 374 12 381 18 381 c 0
 51 381 77 380 94 380 c 0
 117 380 149 380 186 381 c 0
 199 381 200 373 200 367 c 0
 200 358 194 358 189 357 c 0
 174 354 170 349 170 342 c 0
 170 335 176 327 183 318 c 2
 247 237 l 1
 247 237 321 320 321 337 c 0
 321 366 283 348 283 370 c 0
 283 375 287 381 296 381 c 0
 318 381 339 380 359 380 c 0
 379 380 397 381 414 381 c 0
 429 381 435 375 435 369 c 0
 435 360 431 354 424 353 c 0
 385 348 384 350 357 320 c 2
 264 217 l 1
 264 217 373 85 418 38 c 0
 420 35 439 31 442 31 c 0
 462 29 463 26 463 13 c 0
 463 -2 452 -2 443 -2 c 0
 417 -2 391 0 363 0 c 0
 334 0 297 -2 281 -2 c 0
 268 -2 264 6 264 16 c 0
 264 29 279 29 292 30 c 0
 298 30 299 33 299 37 c 0
 299 46 287 61 283 66 c 2
 210 158 l 25
 136 66 l 2
 130 58 127 52 127 46 c 0
 127 15 175 38 175 14 c 0
 175 -1 161 -2 152 -2 c 0
 126 -2 111 0 83 0 c 0
 54 0 45 -2 29 -2 c 0
 16 -2 10 1 10 11 c 0
 10 23 20 26 30 28 c 0
 62 34 78 45 107 79 c 2
 194 178 l 1
EndSplineSet
Layer: 2
SplineSet
195 177 m 5
 195 177 137 254 72 329 c 4
 62 341 53 354 33 354 c 6
 20 354 l 6
 13 354 10 361 10 368 c 4
 10 374 12 381 18 381 c 4
 51 381 77 380 94 380 c 4
 117 380 149 380 186 381 c 4
 199 381 200 373 200 367 c 4
 200 358 194 358 189 357 c 4
 174 354 170 349 170 342 c 4
 170 335 176 327 183 318 c 6
 248 236 l 5
 248 236 321 320 321 337 c 4
 321 355 312 357 297 357 c 4
 288 357 283 364 283 370 c 4
 283 375 287 381 296 381 c 4
 318 381 339 380 359 380 c 4
 379 380 397 381 414 381 c 4
 429 381 435 375 435 369 c 4
 435 360 431 354 424 353 c 4
 385 348 384 350 357 320 c 6
 263 218 l 5
 263 218 373 85 418 38 c 4
 420 35 439 31 442 31 c 4
 462 29 463 26 463 13 c 4
 463 -2 452 -2 443 -2 c 4
 417 -2 391 0 363 0 c 4
 334 0 297 -2 281 -2 c 4
 268 -2 263 6 263 16 c 4
 263 29 275 29 288 30 c 4
 294 30 295 33 295 37 c 4
 295 46 283 61 279 66 c 6
 208 160 l 29
 136 66 l 6
 130 58 127 52 127 46 c 4
 127 15 175 38 175 14 c 4
 175 -1 161 -2 152 -2 c 4
 126 -2 111 0 83 0 c 4
 54 0 45 -2 29 -2 c 4
 16 -2 10 1 10 11 c 4
 10 23 20 26 30 28 c 4
 62 34 77 46 107 79 c 6
 195 177 l 5
EndSplineSet
EndChar

StartChar: y
Encoding: 121 121 24
Width: 452
VWidth: 0
Flags: W
HStem: -279 106<77.9826 143.859> 355 27<15.0088 42 163.005 197.896 301.026 342.131 407.179 446.979>
VStem: 349 98<316.5 371>
DStem2: 169 323 68 326 0.420461 -0.907311<-19.5896 227.221> 220 -2 182 -179 0.379511 0.925187<-181.458 0 127.235 347.401>
LayerCount: 3
Fore
SplineSet
220 -2 m 1
 165 123 l 2
 136 191 103 255 68 326 c 0
 61 340 53 348 42 351 c 2
 25 355 l 2
 18 357 15 362 15 369 c 0
 15 375 17 382 23 382 c 0
 56 382 77 380 94 380 c 0
 117 380 147 381 184 382 c 0
 197 382 198 372 198 366 c 0
 198 361 194 359 188 357 c 0
 170 352 163 350 163 342 c 0
 163 338 165 332 169 323 c 0
 186 281 227 194 247 149 c 0
 256 129 263 117 265 117 c 0
 268 117 272 126 280 142 c 0
 296 174 318 235 341 291 c 0
 346 302 349 312 349 321 c 0
 349 339 338 351 315 356 c 0
 307 358 301 363 301 369 c 0
 301 374 305 381 314 381 c 0
 336 381 354 380 374 380 c 0
 394 380 409 381 426 381 c 0
 441 381 447 374 447 368 c 0
 447 364 446 359 439 357 c 0
 405 346 391 331 378 302 c 2
 309 145 l 2
 298 120 268 38 250 -8 c 0
 248 -12 221 -79 193 -149 c 0
 189 -159 186 -169 182 -179 c 0
 168 -215 150 -279 104 -279 c 0
 80 -279 58 -262 58 -240 c 0
 58 -194 96 -182 122 -173 c 0
 141 -166 155 -149 164 -130 c 0
 190 -78 220 -2 220 -2 c 1
EndSplineSet
EndChar

StartChar: z
Encoding: 122 122 25
Width: 374
VWidth: 0
Flags: W
HStem: -2 31<144.806 257.377> 353 27<112.477 227.996>
VStem: 35 28<248.071 293.14> 315 29<84.6108 140.977>
DStem2: 31 30 146 53 0.529906 0.848057<60.799 371.993>
LayerCount: 3
Fore
SplineSet
337 17 m 0
 337 7 332 -2 310 -2 c 0
 302 -2 262 0 158 0 c 0
 113 0 54 -2 43 -2 c 0
 30 -2 26 5 26 13 c 0
 26 19 28 26 31 30 c 0
 78 100 144 203 186 272 c 0
 203 300 228 337 228 346 c 0
 228 353 223 353 209 353 c 2
 202 353 l 2
 192 353 131 353 106 336 c 0
 78 317 76 281 63 258 c 0
 60 253 55 248 48 248 c 0
 35 248 34 259 35 271 c 0
 37 291 39 301 40 356 c 0
 40 372 43 381 58 381 c 0
 64 381 163 380 208 380 c 0
 262 380 312 382 322 382 c 0
 330 382 336 377 336 369 c 0
 336 361 333 352 330 348 c 0
 293 301 213 170 146 53 c 0
 143 47 133 29 148 29 c 0
 199 29 229 31 262 46 c 0
 298 62 308 96 315 125 c 0
 317 133 318 141 329 141 c 0
 336 141 344 136 344 129 c 0
 344 112 340 97 339 84 c 0
 337 63 338 43 337 17 c 0
EndSplineSet
EndChar

StartChar: zero
Encoding: 48 48 52
Width: 236
VWidth: 0
Flags: W
HStem: 174 112<75.9218 164.078>
VStem: 64 112<185.922 274.078>
LayerCount: 3
Fore
SplineSet
64 230 m 0
 64 261 89 286 120 286 c 0
 151 286 176 261 176 230 c 0
 176 199 151 174 120 174 c 0
 89 174 64 199 64 230 c 0
EndSplineSet
EndChar

StartChar: one
Encoding: 49 49 53
Width: 236
VWidth: 0
Flags: W
HStem: 174 112<75.9218 164.078>
VStem: 64 112<185.922 274.078>
LayerCount: 3
Fore
SplineSet
64 230 m 0
 64 261 89 286 120 286 c 0
 151 286 176 261 176 230 c 0
 176 199 151 174 120 174 c 0
 89 174 64 199 64 230 c 0
EndSplineSet
EndChar

StartChar: two
Encoding: 50 50 54
Width: 236
VWidth: 0
Flags: W
HStem: 174 112<75.9218 164.078>
VStem: 64 112<185.922 274.078>
LayerCount: 3
Fore
SplineSet
64 230 m 0
 64 261 89 286 120 286 c 0
 151 286 176 261 176 230 c 0
 176 199 151 174 120 174 c 0
 89 174 64 199 64 230 c 0
EndSplineSet
EndChar

StartChar: three
Encoding: 51 51 55
Width: 236
VWidth: 0
Flags: W
HStem: 174 112<75.9218 164.078>
VStem: 64 112<185.922 274.078>
LayerCount: 3
Fore
SplineSet
64 230 m 0
 64 261 89 286 120 286 c 0
 151 286 176 261 176 230 c 0
 176 199 151 174 120 174 c 0
 89 174 64 199 64 230 c 0
EndSplineSet
EndChar

StartChar: four
Encoding: 52 52 56
Width: 236
VWidth: 0
Flags: W
HStem: 174 112<75.9218 164.078>
VStem: 64 112<185.922 274.078>
LayerCount: 3
Fore
SplineSet
64 230 m 0
 64 261 89 286 120 286 c 0
 151 286 176 261 176 230 c 0
 176 199 151 174 120 174 c 0
 89 174 64 199 64 230 c 0
EndSplineSet
EndChar

StartChar: five
Encoding: 53 53 57
Width: 236
VWidth: 0
Flags: W
HStem: 174 112<75.9218 164.078>
VStem: 64 112<185.922 274.078>
LayerCount: 3
Fore
SplineSet
64 230 m 0
 64 261 89 286 120 286 c 0
 151 286 176 261 176 230 c 0
 176 199 151 174 120 174 c 0
 89 174 64 199 64 230 c 0
EndSplineSet
EndChar

StartChar: six
Encoding: 54 54 58
Width: 236
VWidth: 0
Flags: W
HStem: 174 112<75.9218 164.078>
VStem: 64 112<185.922 274.078>
LayerCount: 3
Fore
SplineSet
64 230 m 0
 64 261 89 286 120 286 c 0
 151 286 176 261 176 230 c 0
 176 199 151 174 120 174 c 0
 89 174 64 199 64 230 c 0
EndSplineSet
EndChar

StartChar: seven
Encoding: 55 55 59
Width: 236
VWidth: 0
Flags: W
HStem: 174 112<75.9218 164.078>
VStem: 64 112<185.922 274.078>
LayerCount: 3
Fore
SplineSet
64 230 m 0
 64 261 89 286 120 286 c 0
 151 286 176 261 176 230 c 0
 176 199 151 174 120 174 c 0
 89 174 64 199 64 230 c 0
EndSplineSet
EndChar

StartChar: eight
Encoding: 56 56 60
Width: 236
VWidth: 0
Flags: W
HStem: 174 112<75.9218 164.078>
VStem: 64 112<185.922 274.078>
LayerCount: 3
Fore
SplineSet
64 230 m 0
 64 261 89 286 120 286 c 0
 151 286 176 261 176 230 c 0
 176 199 151 174 120 174 c 0
 89 174 64 199 64 230 c 0
EndSplineSet
EndChar

StartChar: nine
Encoding: 57 57 61
Width: 236
VWidth: 0
Flags: W
HStem: 174 112<75.9218 164.078>
VStem: 64 112<185.922 274.078>
LayerCount: 3
Fore
SplineSet
64 230 m 0
 64 261 89 286 120 286 c 0
 151 286 176 261 176 230 c 0
 176 199 151 174 120 174 c 0
 89 174 64 199 64 230 c 0
EndSplineSet
EndChar

StartChar: period
Encoding: 46 46 63
Width: 276
VWidth: 0
Flags: W
HStem: -14 122<93.1072 184.893>
VStem: 78 122<1.10723 92.8928>
LayerCount: 3
Fore
SplineSet
78 47 m 0
 78 80 106 108 139 108 c 0
 172 108 200 80 200 47 c 0
 200 14 172 -14 139 -14 c 0
 106 -14 78 14 78 47 c 0
EndSplineSet
EndChar

StartChar: colon
Encoding: 58 58 64
Width: 276
VWidth: 0
Flags: W
HStem: -14 122<93.1072 184.893> 271 122<93.1072 184.893>
VStem: 78 122<1.10723 92.8928 286.107 377.893>
LayerCount: 3
Fore
SplineSet
78 332 m 0
 78 365 106 393 139 393 c 0
 172 393 200 365 200 332 c 0
 200 299 172 271 139 271 c 0
 106 271 78 299 78 332 c 0
78 47 m 0
 78 80 106 108 139 108 c 0
 172 108 200 80 200 47 c 0
 200 14 172 -14 139 -14 c 0
 106 -14 78 14 78 47 c 0
EndSplineSet
EndChar

StartChar: semicolon
Encoding: 59 59 65
Width: 276
VWidth: 0
Flags: W
HStem: 30 82<107.054 193.5> 271 122<93.1072 184.893>
VStem: 78 122<286.107 377.893> 198 28<-71.098 29.8588>
LayerCount: 3
Fore
SplineSet
78 332 m 0xe0
 78 365 106 393 139 393 c 0
 172 393 200 365 200 332 c 0
 200 299 172 271 139 271 c 0
 106 271 78 299 78 332 c 0xe0
130 -6 m 0
 97 -6 69 18 69 51 c 0
 69 84 97 112 130 112 c 0
 201 112 226 46 226 -17 c 0
 226 -89 173 -175 132 -175 c 0
 116 -175 109 -168 109 -159 c 0
 109 -148 113 -144 121 -138 c 0
 146 -118 198 -90 198 -7 c 0xd0
 198 7 196 30 191 30 c 0
 187 30 166 -6 130 -6 c 0
EndSplineSet
EndChar

StartChar: exclam
Encoding: 33 33 66
Width: 276
VWidth: 0
Flags: W
HStem: -14 122<93.1072 184.893>
VStem: 78 122<1.10723 92.8928> 85 108<291.777 626.692>
LayerCount: 3
Fore
SplineSet
78 47 m 0xc0
 78 80 106 108 139 108 c 0
 172 108 200 80 200 47 c 0
 200 14 172 -14 139 -14 c 0
 106 -14 78 14 78 47 c 0xc0
139 651 m 0
 192 651 193 515 193 482 c 2
 193 475 l 2
 193 379 174 244 139 244 c 0
 104 244 85 379 85 475 c 2
 85 482 l 2xa0
 85 515 86 651 139 651 c 0
EndSplineSet
EndChar

StartChar: question
Encoding: 63 63 67
Width: 433
VWidth: 0
Flags: W
HStem: -14 122<93.1072 184.893> 274 29<186.364 259.492> 626 23<135.3 231.57>
VStem: 41 75<521.314 609.208> 78 122<1.10723 92.8928> 123 36<201.026 295.998 317.293 417.656> 308 90<355.624 531.32>
LayerCount: 3
Fore
SplineSet
123 213 m 0xf6
 126 290 128 336 129 408 c 0
 129 414 137 418 145 418 c 0
 153 418 160 414 160 408 c 2
 160 381 l 2
 160 346 166 303 214 303 c 0
 288 303 308 382 308 458 c 0
 308 550 262 626 186 626 c 0
 141 626 116 612 116 580 c 0
 116 568 117 562 117 550 c 0
 117 528 100 516 82 516 c 0
 61 516 41 533 41 562 c 0
 41 623 124 649 192 649 c 0
 284 649 398 578 398 431 c 0
 398 345 320 274 245 274 c 0
 220 274 201 281 189 287 c 0
 184 289 174 296 167 296 c 0
 162 296 159 293 159 282 c 2
 159 212 l 2
 159 205 149 201 140 201 c 0
 130 201 123 205 123 213 c 0xf6
78 47 m 0xea
 78 80 106 108 139 108 c 0
 172 108 200 80 200 47 c 0
 200 14 172 -14 139 -14 c 0
 106 -14 78 14 78 47 c 0xea
EndSplineSet
EndChar

StartChar: hyphen
Encoding: 45 45 68
Width: 276
VWidth: 0
Flags: W
HStem: 147 81<27.1638 257.836>
VStem: 27 231<147.164 227.836>
LayerCount: 3
Fore
SplineSet
258 172 m 2
 258 156 249 147 233 147 c 2
 52 147 l 2
 36 147 27 156 27 172 c 2
 27 203 l 2
 27 219 36 228 52 228 c 2
 233 228 l 2
 249 228 258 219 258 203 c 2
 258 172 l 2
EndSplineSet
EndChar

StartChar: quoteright
Encoding: 8217 8217 69
Width: 277
VWidth: 0
Flags: W
HStem: 542 82<98.0536 184.5>
VStem: 189 28<440.902 541.859>
LayerCount: 3
Fore
SplineSet
121 506 m 0
 88 506 60 530 60 563 c 0
 60 596 88 624 121 624 c 0
 192 624 217 558 217 495 c 0
 217 423 164 337 123 337 c 0
 107 337 100 344 100 353 c 0
 100 364 104 368 112 374 c 0
 137 394 189 422 189 505 c 0
 189 519 187 542 182 542 c 0
 178 542 157 506 121 506 c 0
EndSplineSet
EndChar

StartChar: comma
Encoding: 44 44 70
Width: 276
VWidth: 0
Flags: W
HStem: 30 82<107.054 193.5>
VStem: 198 28<-71.098 29.8588>
LayerCount: 3
Fore
SplineSet
130 -6 m 0
 97 -6 69 18 69 51 c 0
 69 84 97 112 130 112 c 0
 201 112 226 46 226 -17 c 0
 226 -89 173 -175 132 -175 c 0
 116 -175 109 -168 109 -159 c 0
 109 -148 113 -144 121 -138 c 0
 146 -118 198 -90 198 -7 c 0
 198 7 196 30 191 30 c 0
 187 30 166 -6 130 -6 c 0
EndSplineSet
EndChar

StartChar: quotedblleft
Encoding: 8220 8220 71
Width: 497
VWidth: 0
Flags: W
HStem: 337 82<92.5 178.946 312.5 398.946>
VStem: 60 28<419.141 520.098> 280 28<419.141 520.098>
LayerCount: 3
Fore
SplineSet
156 455 m 0
 189 455 217 431 217 398 c 0
 217 365 189 337 156 337 c 0
 85 337 60 403 60 466 c 0
 60 538 113 624 154 624 c 0
 170 624 177 617 177 608 c 0
 177 597 173 593 165 587 c 0
 140 567 88 539 88 456 c 0
 88 442 90 419 95 419 c 0
 99 419 120 455 156 455 c 0
376 455 m 0
 409 455 437 431 437 398 c 0
 437 365 409 337 376 337 c 0
 305 337 280 403 280 466 c 0
 280 538 333 624 374 624 c 0
 390 624 397 617 397 608 c 0
 397 597 393 593 385 587 c 0
 360 567 308 539 308 456 c 0
 308 442 310 419 315 419 c 0
 319 419 340 455 376 455 c 0
EndSplineSet
EndChar

StartChar: quotedblright
Encoding: 8221 8221 72
Width: 497
VWidth: 0
Flags: W
HStem: 542 82<98.0536 184.5 318.054 404.5>
VStem: 189 28<440.902 541.859> 409 28<440.902 541.859>
LayerCount: 3
Fore
SplineSet
341 506 m 0
 308 506 280 530 280 563 c 0
 280 596 308 624 341 624 c 0
 412 624 437 558 437 495 c 0
 437 423 384 337 343 337 c 0
 327 337 320 344 320 353 c 0
 320 364 324 368 332 374 c 0
 357 394 409 422 409 505 c 0
 409 519 407 542 402 542 c 0
 398 542 377 506 341 506 c 0
121 506 m 0
 88 506 60 530 60 563 c 0
 60 596 88 624 121 624 c 0
 192 624 217 558 217 495 c 0
 217 423 164 337 123 337 c 0
 107 337 100 344 100 353 c 0
 100 364 104 368 112 374 c 0
 137 394 189 422 189 505 c 0
 189 519 187 542 182 542 c 0
 178 542 157 506 121 506 c 0
EndSplineSet
EndChar

StartChar: quoteleft
Encoding: 8216 8216 73
Width: 277
VWidth: 0
Flags: W
HStem: 337 82<92.5 178.946>
VStem: 60 28<419.141 520.098>
LayerCount: 3
Fore
SplineSet
156 455 m 0
 189 455 217 431 217 398 c 0
 217 365 189 337 156 337 c 0
 85 337 60 403 60 466 c 0
 60 538 113 624 154 624 c 0
 170 624 177 617 177 608 c 0
 177 597 173 593 165 587 c 0
 140 567 88 539 88 456 c 0
 88 442 90 419 95 419 c 0
 99 419 120 455 156 455 c 0
EndSplineSet
EndChar

StartChar: endash
Encoding: 8211 8211 74
Width: 453
VWidth: 0
Flags: W
HStem: 160 53<25 428>
LayerCount: 3
Fore
SplineSet
428 176 m 2
 428 166 428 160 412 160 c 2
 41 160 l 2
 25 160 25 166 25 176 c 2
 25 197 l 2
 25 207 25 213 41 213 c 2
 412 213 l 2
 428 213 428 207 428 197 c 2
 428 176 l 2
EndSplineSet
EndChar

StartChar: emdash
Encoding: 8212 8212 75
Width: 779
VWidth: 0
Flags: W
HStem: 160 53<25 754>
LayerCount: 3
Fore
SplineSet
754 176 m 2
 754 166 754 160 738 160 c 2
 41 160 l 2
 25 160 25 166 25 176 c 2
 25 197 l 2
 25 207 25 213 41 213 c 2
 738 213 l 2
 754 213 754 207 754 197 c 2
 754 176 l 2
EndSplineSet
EndChar
